<?xml version="1.0" standalone="no"?><!DOCTYPE svg PUBLIC "-//W3C//DTD SVG 1.1//EN" "http://www.w3.org/Graphics/SVG/1.1/DTD/svg11.dtd"><svg height="1024" node-id="1" sillyvg="true" template-height="1024" template-width="1024" version="1.1" viewBox="0 0 1024 1024" width="1024" xmlns="http://www.w3.org/2000/svg" xmlns:xlink="http://www.w3.org/1999/xlink"><defs node-id="24"></defs><g node-id="26"><path d="M 0.00 0.00 L 1024.00 0.00 L 1024.00 1024.00 L 0.00 1024.00 Z" fill="none" group-id="1" id="矩形" node-id="6" stroke="none" target-height="1024" target-width="1024" target-x="0" target-y="0"></path><g node-id="27"><path d="M 760.37 482.05 L 264.31 482.05 L 259.14 497.33 L 254.58 512.74 L 250.62 528.29 L 247.26 544.01 L 244.50 559.90 L 242.32 575.85 L 240.71 591.91 L 239.66 608.08 L 239.18 624.38 L 239.26 640.80 L 239.89 657.16 L 241.05 673.57 L 242.74 690.05 L 244.97 706.61 L 247.75 723.24 L 251.01 739.71 L 254.77 756.18 L 259.03 772.66 L 263.81 789.16 L 269.10 805.68 L 274.82 821.97 L 281.01 838.20 L 287.68 854.38 L 294.83 870.51 L 302.47 886.59 L 310.48 902.40 L 318.93 918.09 L 327.83 933.65 L 337.18 949.10 L 346.99 964.44 L 347.30 964.44 L 348.07 966.01 L 349.37 967.66 L 351.34 969.40 L 354.13 971.24 L 357.94 973.20 L 364.08 975.68 L 372.05 978.22 L 382.21 980.78 L 392.41 982.87 L 404.17 984.86 L 417.65 986.72 L 431.14 988.23 L 445.85 989.53 L 461.85 990.61 L 477.82 991.36 L 494.64 991.83 L 512.34 992.00 L 530.03 991.83 L 546.85 991.36 L 562.83 990.61 L 578.83 989.53 L 593.53 988.23 L 607.02 986.72 L 620.51 984.86 L 632.27 982.87 L 642.47 980.78 L 652.62 978.22 L 660.60 975.68 L 666.74 973.20 L 670.55 971.24 L 673.34 969.40 L 675.30 967.66 L 676.61 966.01 L 677.38 964.44 L 677.69 964.44 L 687.49 949.11 L 696.84 933.67 L 705.73 918.11 L 714.19 902.42 L 722.20 886.61 L 729.84 870.53 L 736.98 854.40 L 743.65 838.22 L 749.84 821.99 L 755.56 805.70 L 760.85 789.17 L 765.63 772.67 L 769.90 756.19 L 773.66 739.71 L 776.91 723.24 L 779.69 706.60 L 781.92 690.04 L 783.61 673.56 L 784.77 657.15 L 785.41 640.79 L 785.49 624.36 L 785.01 608.06 L 783.96 591.89 L 782.35 575.83 L 780.18 559.88 L 777.41 543.99 L 774.05 528.28 L 770.09 512.72 L 765.53 497.32 L 760.37 482.05 Z" fill="#e3e5e1" fill-rule="nonzero" group-id="1,2" id="路径" node-id="8" stroke="none" target-height="509.9475" target-width="546.3134" target-x="239.17793" target-y="482.0525"></path><path d="M 342.85 957.99 L 354.93 959.51 L 366.90 960.50 L 378.78 960.97 L 390.58 960.92 L 402.31 960.35 L 414.05 959.27 L 425.64 957.71 L 437.08 955.67 L 448.39 953.15 L 459.57 950.15 L 470.64 946.67 L 481.50 942.76 L 492.15 938.40 L 502.61 933.60 L 512.88 928.35 L 522.93 922.67 L 532.70 916.60 L 542.21 910.11 L 551.46 903.22 L 560.47 895.90 L 569.14 888.22 L 577.48 880.18 L 585.49 871.76 L 593.19 862.95 L 600.56 853.75 L 607.51 844.28 L 614.06 834.47 L 620.23 824.30 L 626.01 813.77 L 631.40 802.85 L 636.29 791.71 L 640.64 780.51 L 644.46 769.25 L 647.77 757.92 L 650.55 746.51 L 652.86 734.94 L 654.65 723.38 L 655.95 711.83 L 656.75 700.27 L 657.05 688.69 L 656.87 677.09 L 656.20 665.57 L 655.05 654.11 L 653.42 642.72 L 651.31 631.37 L 648.72 620.13 L 645.68 609.03 L 642.16 598.07 L 638.18 587.23 L 633.73 576.52 L 628.84 566.02 L 623.50 555.74 L 617.70 545.66 L 611.45 535.78 L 604.72 526.09 L 597.62 516.74 L 590.08 507.66 L 582.08 498.86 L 573.63 490.33 L 564.70 482.05 L 264.31 482.05 L 259.20 497.10 L 254.68 512.29 L 250.75 527.62 L 247.40 543.10 L 244.64 558.76 L 242.45 574.48 L 240.80 590.30 L 239.71 606.24 L 239.17 622.29 L 239.18 638.48 L 239.72 654.60 L 240.78 670.78 L 242.36 687.03 L 244.47 703.35 L 247.10 719.75 L 250.21 735.99 L 253.81 752.24 L 257.90 768.50 L 262.49 784.77 L 267.58 801.08 L 273.09 817.16 L 279.05 833.18 L 285.49 849.16 L 292.39 865.09 L 299.77 880.99 L 307.52 896.62 L 315.70 912.13 L 324.31 927.53 L 333.36 942.81 L 342.85 957.99 Z" fill="#edeeeb" fill-rule="nonzero" group-id="1,2" id="路径" node-id="9" stroke="none" target-height="478.91663" target-width="417.88678" target-x="239.16656" target-y="482.0525"></path><path d="M 270.58 809.93 L 280.98 803.90 L 291.01 797.51 L 300.67 790.74 L 309.98 783.60 L 318.94 776.08 L 327.60 768.17 L 335.86 759.95 L 343.73 751.43 L 351.21 742.59 L 358.32 733.44 L 365.05 723.98 L 371.34 714.29 L 377.21 704.35 L 382.67 694.17 L 387.71 683.71 L 392.31 673.07 L 396.44 662.25 L 400.11 651.25 L 403.33 640.05 L 406.09 628.64 L 408.36 617.17 L 410.13 605.57 L 411.40 593.84 L 412.17 581.97 L 412.44 569.95 L 412.21 558.74 L 411.53 547.58 L 410.39 536.48 L 408.80 525.42 L 406.75 514.44 L 404.26 503.56 L 401.32 492.78 L 397.93 482.09 L 264.31 482.09 L 259.09 497.55 L 254.50 513.15 L 250.52 528.90 L 247.15 544.82 L 244.39 560.92 L 242.23 577.09 L 240.65 593.36 L 239.65 609.74 L 239.22 626.26 L 239.37 642.91 L 240.09 659.48 L 241.34 676.11 L 243.14 692.81 L 245.49 709.59 L 248.40 726.45 L 251.80 743.13 L 255.71 759.81 L 260.14 776.50 L 265.09 793.21 L 270.58 809.93 Z" fill="#f9f9f9" fill-rule="nonzero" group-id="1,2" id="路径" node-id="10" stroke="none" target-height="327.848" target-width="173.21892" target-x="239.21883" target-y="482.08694"></path><path d="M 313.12 907.41 L 323.97 905.00 L 334.62 902.18 L 345.07 898.96 L 355.33 895.35 L 365.42 891.33 L 375.37 886.91 L 385.07 882.13 L 394.54 876.99 L 403.79 871.48 L 412.82 865.61 L 421.62 859.39 L 430.14 852.85 L 438.39 845.99 L 446.37 838.80 L 454.09 831.28 L 461.51 823.46 L 468.60 815.37 L 475.38 806.99 L 481.85 798.32 L 488.01 789.34 L 493.80 780.15 L 499.22 770.72 L 504.28 761.03 L 508.99 751.07 L 513.34 740.84 L 517.26 730.43 L 520.74 719.98 L 523.77 709.47 L 526.37 698.90 L 528.53 688.27 L 530.28 677.52 L 531.59 666.78 L 532.48 656.03 L 532.94 645.28 L 532.97 634.51 L 532.59 623.74 L 531.78 613.02 L 530.56 602.36 L 528.92 591.74 L 526.85 581.16 L 524.38 570.68 L 521.49 560.31 L 518.19 550.05 L 514.48 539.89 L 510.35 529.81 L 505.83 519.94 L 500.91 510.24 L 495.57 500.69 L 489.82 491.30 L 483.64 482.05 L 264.31 482.05 L 259.75 495.44 L 255.65 508.92 L 252.01 522.52 L 248.84 536.24 L 246.12 550.08 L 243.86 564.06 L 241.75 580.88 L 240.26 597.81 L 239.39 614.87 L 239.14 632.06 L 239.52 649.40 L 240.50 666.64 L 242.06 683.94 L 244.21 701.30 L 246.95 718.74 L 250.28 736.27 L 254.15 753.59 L 258.56 770.91 L 263.53 788.22 L 269.05 805.54 L 275.15 822.88 L 281.70 839.94 L 288.77 856.92 L 296.36 873.82 L 304.47 890.65 L 313.12 907.41 Z" fill="#f2f2f2" fill-rule="nonzero" group-id="1,2" id="路径" node-id="11" stroke="none" target-height="425.35828" target-width="293.83374" target-x="239.14052" target-y="482.0525"></path><path d="M 760.33 483.78 L 760.03 485.51 L 759.16 487.29 L 757.59 489.18 L 755.11 491.20 L 751.47 493.39 L 747.16 495.43 L 741.68 497.56 L 734.86 499.77 L 726.47 502.04 L 715.57 504.51 L 702.72 506.96 L 687.69 509.36 L 672.63 511.38 L 655.93 513.27 L 637.49 515.01 L 619.04 516.44 L 599.31 517.66 L 578.24 518.66 L 557.18 519.37 L 535.21 519.80 L 512.30 519.95 L 489.39 519.80 L 467.42 519.37 L 446.37 518.66 L 425.30 517.66 L 405.57 516.44 L 387.12 515.01 L 368.67 513.27 L 351.98 511.38 L 336.92 509.36 L 321.89 506.96 L 309.03 504.51 L 298.14 502.04 L 289.75 499.77 L 282.92 497.56 L 277.45 495.43 L 273.14 493.39 L 269.49 491.20 L 267.02 489.18 L 265.44 487.29 L 264.57 485.51 L 264.28 483.78 L 264.57 482.04 L 265.44 480.26 L 267.02 478.37 L 269.49 476.35 L 273.14 474.16 L 277.45 472.12 L 282.92 469.99 L 289.75 467.78 L 298.14 465.52 L 309.03 463.04 L 321.89 460.59 L 336.92 458.19 L 351.98 456.17 L 368.67 454.28 L 387.12 452.54 L 405.57 451.11 L 425.30 449.89 L 446.37 448.89 L 467.42 448.19 L 489.39 447.75 L 512.30 447.60 L 535.21 447.75 L 557.18 448.19 L 578.24 448.89 L 599.31 449.89 L 619.04 451.11 L 637.49 452.54 L 655.93 454.28 L 672.63 456.17 L 687.69 458.19 L 702.72 460.59 L 715.57 463.04 L 726.47 465.52 L 734.86 467.78 L 741.68 469.99 L 747.16 472.12 L 751.47 474.16 L 755.11 476.35 L 757.59 478.37 L 759.16 480.26 L 760.03 482.04 L 760.33 483.78 Z" fill="#e3e5e1" fill-rule="nonzero" group-id="1,2" id="椭圆形" node-id="12" stroke="none" target-height="72.35739" target-width="496.056" target-x="264.27542" target-y="447.5966"></path><path d="M 760.33 487.22 L 760.03 488.96 L 759.16 490.74 L 757.59 492.62 L 755.11 494.65 L 751.47 496.84 L 747.16 498.88 L 741.68 501.01 L 734.86 503.21 L 726.47 505.48 L 715.57 507.96 L 702.72 510.41 L 687.69 512.80 L 672.63 514.83 L 655.93 516.72 L 637.49 518.46 L 619.04 519.89 L 599.31 521.11 L 578.24 522.11 L 557.18 522.81 L 535.21 523.25 L 512.30 523.40 L 489.39 523.25 L 467.42 522.81 L 446.37 522.11 L 425.30 521.11 L 405.57 519.89 L 387.12 518.46 L 368.67 516.72 L 351.98 514.83 L 336.92 512.80 L 321.89 510.41 L 309.03 507.96 L 298.14 505.48 L 289.75 503.21 L 282.92 501.01 L 277.45 498.88 L 273.14 496.84 L 269.49 494.65 L 267.02 492.62 L 265.44 490.74 L 264.57 488.96 L 264.28 487.22 L 264.57 485.48 L 265.44 483.70 L 267.02 481.82 L 269.49 479.79 L 273.14 477.60 L 277.45 475.56 L 282.92 473.43 L 289.75 471.23 L 298.14 468.96 L 309.03 466.49 L 321.89 464.04 L 336.92 461.64 L 351.98 459.61 L 368.67 457.72 L 387.12 455.98 L 405.57 454.55 L 425.30 453.33 L 446.37 452.33 L 467.42 451.63 L 489.39 451.20 L 512.30 451.04 L 535.21 451.20 L 557.18 451.63 L 578.24 452.33 L 599.31 453.33 L 619.04 454.55 L 637.49 455.98 L 655.93 457.72 L 672.63 459.61 L 687.69 461.64 L 702.72 464.04 L 715.57 466.49 L 726.47 468.96 L 734.86 471.23 L 741.68 473.43 L 747.16 475.56 L 751.47 477.60 L 755.11 479.79 L 757.59 481.82 L 759.16 483.70 L 760.03 485.48 L 760.33 487.22 Z" fill="#ffffff" fill-rule="nonzero" group-id="1,2" id="椭圆形" node-id="13" stroke="none" target-height="72.35742" target-width="496.056" target-x="264.27542" target-y="451.04218"></path><path d="M 760.33 483.78 L 760.03 485.51 L 759.16 487.29 L 757.59 489.18 L 755.11 491.20 L 751.47 493.39 L 747.16 495.43 L 741.68 497.56 L 734.86 499.77 L 726.47 502.04 L 715.57 504.51 L 702.72 506.96 L 687.69 509.36 L 672.63 511.38 L 655.93 513.27 L 637.49 515.01 L 619.04 516.44 L 599.31 517.66 L 578.24 518.66 L 557.18 519.37 L 535.21 519.80 L 512.30 519.95 L 489.39 519.80 L 467.42 519.37 L 446.37 518.66 L 425.30 517.66 L 405.57 516.44 L 387.12 515.01 L 368.67 513.27 L 351.98 511.38 L 336.92 509.36 L 321.89 506.96 L 309.03 504.51 L 298.14 502.04 L 289.75 499.77 L 282.92 497.56 L 277.45 495.43 L 273.14 493.39 L 269.49 491.20 L 267.02 489.18 L 265.44 487.29 L 264.57 485.51 L 264.28 483.78 L 264.57 482.04 L 265.44 480.26 L 267.02 478.37 L 269.49 476.35 L 273.14 474.16 L 277.45 472.12 L 282.92 469.99 L 289.75 467.78 L 298.14 465.52 L 309.03 463.04 L 321.89 460.59 L 336.92 458.19 L 351.98 456.17 L 368.67 454.28 L 387.12 452.54 L 405.57 451.11 L 425.30 449.89 L 446.37 448.89 L 467.42 448.19 L 489.39 447.75 L 512.30 447.60 L 535.21 447.75 L 557.18 448.19 L 578.24 448.89 L 599.31 449.89 L 619.04 451.11 L 637.49 452.54 L 655.93 454.28 L 672.63 456.17 L 687.69 458.19 L 702.72 460.59 L 715.57 463.04 L 726.47 465.52 L 734.86 467.78 L 741.68 469.99 L 747.16 472.12 L 751.47 474.16 L 755.11 476.35 L 757.59 478.37 L 759.16 480.26 L 760.03 482.04 L 760.33 483.78 Z" fill="#e3e5e1" fill-rule="nonzero" group-id="1,2" id="椭圆形" node-id="14" stroke="none" target-height="72.35739" target-width="496.056" target-x="264.27542" target-y="447.5966"></path><path d="M 739.73 483.78 L 739.50 484.76 L 738.79 485.81 L 737.43 486.98 L 735.14 488.28 L 731.61 489.73 L 726.14 491.42 L 718.65 493.21 L 708.68 495.08 L 693.04 497.37 L 673.12 499.61 L 651.85 501.46 L 627.09 503.11 L 601.27 504.39 L 572.76 505.37 L 543.48 505.96 L 512.30 506.17 L 481.12 505.96 L 451.84 505.37 L 423.33 504.39 L 397.52 503.11 L 372.76 501.46 L 351.49 499.61 L 331.57 497.37 L 315.93 495.08 L 305.96 493.21 L 298.47 491.42 L 293.00 489.73 L 289.46 488.28 L 287.18 486.98 L 285.82 485.81 L 285.11 484.76 L 284.88 483.78 L 285.11 482.79 L 285.82 481.74 L 287.18 480.57 L 289.46 479.27 L 293.00 477.82 L 298.47 476.13 L 305.96 474.34 L 315.93 472.47 L 331.57 470.18 L 351.49 467.94 L 372.76 466.09 L 397.52 464.44 L 423.33 463.16 L 451.84 462.18 L 481.12 461.59 L 512.30 461.38 L 543.48 461.59 L 572.76 462.18 L 601.27 463.16 L 627.09 464.44 L 651.85 466.09 L 673.12 467.94 L 693.04 470.18 L 708.68 472.47 L 718.65 474.34 L 726.14 476.13 L 731.61 477.82 L 735.14 479.27 L 737.43 480.57 L 738.79 481.74 L 739.50 482.79 L 739.73 483.78 Z" fill="#aeb5a5" fill-rule="nonzero" group-id="1,2" id="椭圆形" node-id="15" stroke="none" target-height="44.792664" target-width="454.8558" target-x="284.87552" target-y="461.37897"></path></g><g node-id="28"><path d="M 411.23 387.42 L 417.95 394.14 L 423.77 400.73 L 429.06 407.45 L 433.44 413.62 L 437.35 419.69 L 440.35 424.79 L 444.62 432.95 L 444.91 433.10 L 445.41 433.35 L 446.92 434.10 L 447.43 434.35 L 447.93 434.60 L 448.43 434.85 L 448.93 435.11 L 449.94 435.61 L 450.44 435.86 L 450.94 436.11 L 452.45 436.86 L 452.96 437.12 L 453.46 437.37 L 453.96 437.62 L 454.46 437.87 L 455.47 438.37 L 455.97 438.62 L 456.48 438.87 L 456.98 439.13 L 457.31 438.96 L 457.82 439.21 L 459.32 439.96 L 459.83 440.21 L 460.83 440.72 L 461.34 440.97 L 461.84 441.22 L 462.34 441.47 L 462.84 441.72 L 463.35 441.97 L 464.35 442.48 L 464.86 442.73 L 465.36 442.98 L 466.36 443.48 L 466.87 443.73 L 467.37 443.98 L 467.87 444.23 L 468.38 444.49 L 468.88 444.74 L 469.88 445.24 L 470.39 445.49 L 470.89 445.74 L 472.40 446.50 L 472.90 446.83 L 475.42 448.51 L 475.92 448.84 L 480.95 452.86 L 481.37 453.20 L 486.81 457.55 L 488.49 459.23 L 488.91 459.65 L 490.50 461.24 L 490.92 461.66 L 492.59 463.33 L 492.93 463.75 L 493.26 464.17 L 493.60 464.59 L 494.27 465.43 L 494.61 465.84 L 494.94 466.26 L 495.28 466.68 L 495.61 467.10 L 495.95 467.52 L 496.28 467.94 L 496.62 468.36 L 497.29 469.19 L 497.62 469.61 L 497.96 470.03 L 498.29 470.45 L 498.63 470.87 L 498.96 471.29 L 499.63 472.13 L 499.97 472.54 L 500.30 472.96 L 500.64 473.38 L 500.97 473.80 L 501.31 474.30 L 501.65 474.81 L 501.98 475.31 L 502.32 475.81 L 502.65 476.31 L 502.99 476.82 L 503.32 477.32 L 503.57 477.82 L 503.82 478.32 L 504.08 478.83 L 504.33 479.33 L 504.58 479.83 L 504.83 480.33 L 505.08 480.84 L 505.33 481.34 L 505.58 481.84 L 505.84 482.34 L 506.09 482.85 L 506.34 483.35 L 506.84 484.35 L 507.09 484.86 L 507.34 485.36 L 507.60 485.86 L 507.85 486.36 L 508.10 486.87 L 508.35 487.37 L 508.60 487.87 L 508.85 488.37 L 509.10 488.88 L 509.35 489.38 L 509.61 489.88 L 509.86 490.38 L 510.11 490.89 L 510.36 491.39 L 510.61 491.89 L 510.86 492.39 L 511.11 492.90 L 511.37 493.40 L 511.62 493.90 L 511.87 494.40 L 500.30 503.97 L 500.05 503.55 L 499.55 502.72 L 499.30 502.30 L 497.53 502.30 L 498.80 501.46 L 498.54 501.04 L 490.75 490.97 L 490.50 490.55 L 490.25 490.13 L 490.00 489.71 L 489.75 489.30 L 489.49 488.88 L 489.24 488.46 L 488.99 488.04 L 488.74 487.62 L 488.49 487.20 L 488.24 486.78 L 487.99 486.36 L 487.73 485.95 L 487.23 485.11 L 486.98 484.69 L 486.73 484.27 L 486.48 483.85 L 485.97 483.01 L 485.72 482.60 L 485.47 482.18 L 485.22 481.76 L 484.72 481.09 L 484.47 480.75 L 484.21 480.42 L 483.96 480.08 L 483.46 479.41 L 483.21 479.08 L 482.96 478.74 L 482.71 478.41 L 482.20 477.74 L 481.87 477.40 L 480.86 476.40 L 480.53 476.06 L 477.85 473.38 L 477.51 473.13 L 477.17 472.80 L 475.83 471.46 L 475.50 471.12 L 474.16 469.78 L 473.82 469.45 L 473.49 469.19 L 473.15 468.94 L 472.82 468.69 L 472.48 468.44 L 472.15 468.19 L 471.14 467.44 L 470.81 467.18 L 469.80 466.43 L 469.47 466.18 L 468.21 465.43 L 467.79 465.17 L 466.95 464.67 L 466.53 464.42 L 466.11 464.17 L 465.27 463.67 L 464.86 463.41 L 463.60 462.66 L 463.18 462.41 L 462.34 461.91 L 461.92 461.66 L 460.67 460.90 L 460.25 460.65 L 458.99 459.90 L 458.57 459.65 L 457.73 459.14 L 457.31 458.89 L 456.06 458.14 L 455.64 457.89 L 454.38 457.13 L 453.96 456.88 L 452.70 456.13 L 452.29 455.88 L 451.45 455.37 L 451.03 455.12 L 450.19 454.62 L 449.69 454.37 L 449.18 454.12 L 448.68 453.87 L 447.68 453.36 L 447.17 453.11 L 446.67 452.86 L 446.17 452.61 L 445.67 452.36 L 444.16 451.61 L 443.65 451.35 L 443.15 451.10 L 442.39 450.73 L 440.41 451.84 L 438.20 452.56 L 428.77 454.33 L 419.65 455.57 L 410.83 456.29 L 402.27 456.52 L 393.63 456.24 L 385.28 455.46 L 377.20 454.17 L 369.36 452.39 L 362.03 450.24 L 354.96 447.65 L 348.12 444.64 L 341.51 441.19 L 335.10 437.30 L 328.90 432.96 L 322.88 428.16 L 317.76 423.53 L 313.18 418.96 L 309.11 414.44 L 303.50 407.46 L 299.00 401.06 L 295.08 394.74 L 292.18 389.46 L 289.75 384.54 L 288.26 381.15 L 286.87 377.57 L 286.25 375.28 L 286.04 373.75 L 286.04 371.87 L 286.37 369.93 L 287.20 367.73 L 288.47 365.71 L 290.08 364.03 L 292.00 362.71 L 294.16 361.84 L 302.68 359.51 L 310.75 357.77 L 318.38 356.58 L 325.61 355.91 L 333.02 355.67 L 340.03 355.85 L 346.68 356.42 L 352.99 357.38 L 361.35 359.24 L 369.12 361.57 L 376.34 364.37 L 383.35 367.67 L 389.80 371.22 L 395.74 375.01 L 401.45 379.14 L 406.60 383.28 L 411.23 387.42 Z M 729.84 323.88 L 732.05 324.74 L 733.98 326.02 L 735.57 327.69 L 736.79 329.74 L 737.63 331.93 L 737.96 333.86 L 737.96 335.73 L 737.75 337.26 L 737.13 339.54 L 735.74 343.09 L 734.24 346.47 L 731.82 351.37 L 728.91 356.62 L 724.99 362.91 L 720.48 369.28 L 714.87 376.23 L 710.80 380.73 L 706.22 385.27 L 701.09 389.88 L 695.08 394.66 L 688.87 398.97 L 682.46 402.84 L 675.84 406.28 L 669.00 409.28 L 661.92 411.85 L 654.58 414.00 L 646.74 415.77 L 638.65 417.05 L 630.29 417.83 L 621.65 418.10 L 613.09 417.88 L 604.26 417.16 L 595.13 415.93 L 585.70 414.17 L 583.35 413.38 L 581.26 412.17 L 580.98 412.31 L 580.47 412.56 L 579.47 413.06 L 578.96 413.31 L 577.96 413.82 L 577.45 414.07 L 576.95 414.32 L 576.45 414.57 L 575.94 414.82 L 575.44 415.07 L 574.94 415.32 L 573.93 415.83 L 573.43 416.08 L 572.59 416.58 L 572.17 416.83 L 571.75 417.08 L 571.33 417.33 L 570.50 417.84 L 570.08 418.09 L 569.66 418.34 L 568.73 418.84 L 568.32 419.09 L 567.90 419.35 L 567.48 419.60 L 567.06 419.85 L 566.64 420.10 L 565.80 420.60 L 565.38 420.85 L 564.54 421.36 L 564.12 421.61 L 563.70 421.86 L 563.28 422.11 L 562.45 422.61 L 562.03 422.86 L 561.61 423.12 L 561.19 423.37 L 560.77 423.62 L 560.35 423.87 L 559.93 424.12 L 559.51 424.37 L 559.09 424.62 L 558.67 424.88 L 557.84 425.38 L 557.42 425.63 L 557.00 425.88 L 556.58 426.13 L 556.16 426.38 L 555.74 426.63 L 555.32 426.89 L 554.90 427.14 L 554.48 427.39 L 554.15 427.64 L 553.81 427.89 L 553.48 428.14 L 553.14 428.39 L 552.80 428.65 L 552.47 428.90 L 552.13 429.15 L 551.80 429.40 L 551.46 429.65 L 551.13 429.99 L 550.46 430.66 L 550.12 430.99 L 549.79 431.33 L 549.45 431.66 L 549.12 432.00 L 548.45 432.67 L 548.11 433.00 L 546.77 434.34 L 546.10 435.01 L 544.76 436.35 L 544.42 436.69 L 544.09 437.02 L 543.75 437.36 L 543.41 437.70 L 543.08 438.03 L 542.74 438.37 L 542.41 438.70 L 542.16 439.04 L 541.91 439.37 L 541.65 439.71 L 541.40 440.04 L 541.15 440.38 L 540.90 440.71 L 540.65 441.05 L 540.40 441.38 L 540.14 441.72 L 539.89 442.05 L 539.64 442.47 L 539.39 442.89 L 539.14 443.31 L 538.89 443.73 L 538.64 444.15 L 538.38 444.57 L 538.13 444.98 L 537.88 445.40 L 537.63 445.82 L 537.38 446.24 L 536.88 447.08 L 536.62 447.50 L 536.37 447.92 L 536.12 448.34 L 535.87 448.76 L 535.62 449.17 L 535.37 449.59 L 535.11 450.01 L 534.86 450.43 L 534.61 450.85 L 534.36 451.27 L 534.11 451.69 L 533.86 452.11 L 533.61 452.53 L 533.35 452.94 L 533.10 453.36 L 532.85 453.78 L 532.60 454.20 L 532.35 454.62 L 532.10 455.04 L 531.84 455.46 L 531.59 455.88 L 531.09 456.72 L 530.84 457.13 L 530.59 457.55 L 530.34 457.97 L 530.08 458.39 L 529.83 458.81 L 529.58 459.23 L 529.33 459.65 L 529.08 460.07 L 528.83 460.49 L 528.57 460.90 L 528.32 461.32 L 528.07 461.83 L 527.82 462.33 L 527.57 462.83 L 527.32 463.33 L 527.07 463.84 L 526.81 464.34 L 526.56 464.84 L 526.31 465.35 L 525.81 466.35 L 525.56 466.85 L 525.30 467.36 L 525.05 467.86 L 524.80 468.36 L 524.55 468.86 L 524.30 469.37 L 524.05 469.87 L 523.80 470.37 L 523.54 470.88 L 523.29 471.38 L 523.04 471.88 L 522.79 472.38 L 522.54 472.89 L 522.29 473.39 L 522.04 473.89 L 521.78 474.40 L 521.53 474.90 L 521.28 475.40 L 521.03 475.90 L 520.78 476.41 L 521.03 476.82 L 520.36 478.00 L 519.52 479.00 L 518.51 479.84 L 517.42 480.51 L 516.25 481.01 L 514.99 481.35 L 513.73 481.52 L 512.39 481.43 L 511.05 481.18 L 509.79 480.68 L 508.62 480.01 L 507.61 479.17 L 506.78 478.17 L 506.11 477.08 L 505.60 475.90 L 505.27 474.65 L 505.10 473.39 L 505.18 472.05 L 505.43 470.71 L 505.94 469.45 L 506.19 468.95 L 506.44 468.45 L 506.69 467.94 L 506.94 467.44 L 507.20 466.94 L 507.45 466.44 L 507.70 465.93 L 507.95 465.43 L 508.20 464.93 L 508.45 464.42 L 508.70 463.92 L 508.96 463.42 L 509.21 462.92 L 509.46 462.41 L 509.96 461.41 L 510.21 460.90 L 510.47 460.40 L 510.72 459.90 L 510.97 459.40 L 511.22 458.89 L 511.47 458.39 L 511.72 457.89 L 511.97 457.39 L 512.23 456.88 L 512.48 456.38 L 512.73 455.88 L 512.98 455.37 L 513.23 454.87 L 513.48 454.37 L 513.73 453.87 L 513.99 453.36 L 514.24 452.86 L 514.49 452.36 L 514.74 451.86 L 514.99 451.35 L 515.24 450.85 L 515.50 450.35 L 515.75 449.84 L 516.00 449.34 L 516.25 448.84 L 516.50 448.34 L 516.75 447.83 L 517.00 447.33 L 517.26 446.83 L 517.51 446.33 L 517.76 445.82 L 518.01 445.32 L 518.26 444.82 L 518.51 444.31 L 518.77 443.81 L 519.02 443.31 L 519.27 442.81 L 519.52 442.30 L 519.77 441.80 L 520.02 441.30 L 520.27 440.80 L 520.53 440.29 L 520.78 439.79 L 521.11 439.29 L 521.45 438.78 L 522.12 437.78 L 522.45 437.28 L 522.79 436.77 L 523.13 436.27 L 523.46 435.77 L 523.80 435.27 L 524.13 434.76 L 524.47 434.26 L 524.80 433.84 L 525.14 433.42 L 525.81 432.58 L 526.14 432.17 L 526.48 431.75 L 526.81 431.33 L 527.15 430.91 L 527.48 430.49 L 527.82 430.07 L 528.49 429.23 L 528.83 428.81 L 529.50 427.98 L 529.83 427.56 L 530.17 427.14 L 530.50 426.72 L 531.17 425.88 L 531.51 425.46 L 531.84 425.04 L 532.68 424.20 L 533.10 423.79 L 533.94 422.95 L 534.36 422.53 L 535.53 421.36 L 535.95 420.94 L 536.37 420.52 L 536.79 420.10 L 538.47 418.42 L 538.89 418.09 L 539.31 417.75 L 539.73 417.42 L 540.14 417.08 L 540.56 416.75 L 541.82 415.74 L 542.24 415.41 L 542.66 415.07 L 544.34 413.73 L 544.76 413.40 L 546.43 412.06 L 546.85 411.72 L 547.27 411.39 L 548.11 410.71 L 550.12 409.37 L 550.62 409.04 L 551.13 408.70 L 551.63 408.37 L 553.14 407.36 L 553.64 407.11 L 554.15 406.86 L 554.65 406.61 L 555.66 406.11 L 556.16 405.85 L 557.16 405.35 L 557.67 405.10 L 558.17 404.85 L 558.67 404.60 L 559.68 404.10 L 560.18 403.84 L 561.19 403.34 L 561.69 403.09 L 562.19 402.84 L 562.70 402.59 L 563.20 402.34 L 563.70 402.08 L 564.21 401.83 L 565.21 401.33 L 565.72 401.08 L 566.72 400.58 L 567.23 400.32 L 567.73 400.07 L 568.23 399.82 L 569.24 399.32 L 569.74 399.07 L 570.75 398.57 L 571.25 398.31 L 572.26 397.81 L 572.76 397.56 L 573.26 397.31 L 573.76 397.06 L 574.77 396.55 L 575.27 396.30 L 576.28 395.80 L 576.78 395.55 L 577.29 395.30 L 577.79 395.05 L 578.80 394.54 L 579.30 394.29 L 579.49 394.20 L 583.84 386.00 L 586.86 380.94 L 590.75 374.98 L 595.11 368.92 L 600.33 362.35 L 606.08 355.90 L 612.68 349.34 L 617.32 345.22 L 622.47 341.10 L 628.19 336.99 L 634.12 333.21 L 640.58 329.68 L 647.60 326.40 L 654.82 323.61 L 662.60 321.29 L 670.97 319.44 L 677.28 318.49 L 683.93 317.92 L 690.95 317.74 L 698.36 317.98 L 705.60 318.64 L 713.24 319.82 L 721.31 321.56 L 729.84 323.88 Z" fill="#008a49" fill-rule="nonzero" group-id="1,3" id="形状结合" node-id="17" stroke="none" target-height="186.23428" target-width="451.92804" target-x="286.03595" target-y="317.739"></path><path d="M 508.55 506.56 L 510.50 506.69 L 512.26 506.99 L 515.27 507.54 L 516.47 507.49 L 517.30 507.08 L 517.81 506.24 L 518.04 504.49 L 518.04 334.97 L 499.06 334.97 L 499.06 504.49 L 499.29 506.24 L 499.80 507.08 L 500.63 507.49 L 501.83 507.54 L 504.84 506.99 L 506.60 506.69 L 508.55 506.56 Z" fill="#378262" fill-rule="nonzero" group-id="1,3" id="路径" node-id="18" stroke="none" target-height="172.57031" target-width="18.977081" target-x="499.06107" target-y="334.9655"></path><path d="M 479.28 134.81 L 482.56 145.80 L 484.01 152.51 L 485.16 159.46 L 485.20 161.36 L 484.85 163.21 L 484.11 164.94 L 482.97 166.51 L 481.53 167.78 L 479.89 168.69 L 478.10 169.22 L 476.18 169.36 L 473.14 169.13 L 465.91 168.13 L 461.23 167.21 L 455.54 165.84 L 451.01 164.49 L 459.40 172.38 L 463.96 177.43 L 468.46 182.94 L 469.47 184.56 L 470.08 186.32 L 470.28 188.17 L 470.05 190.07 L 469.43 191.88 L 468.46 193.47 L 467.18 194.84 L 465.61 195.94 L 462.87 197.23 L 456.10 199.98 L 451.59 201.55 L 445.98 203.23 L 441.45 204.32 L 452.60 206.92 L 459.12 209.02 L 465.78 211.53 L 467.44 212.46 L 468.85 213.68 L 469.96 215.17 L 470.73 216.90 L 471.09 218.76 L 471.05 220.64 L 470.62 222.47 L 469.80 224.19 L 468.08 226.71 L 463.61 232.47 L 460.49 236.06 L 456.46 240.29 L 453.02 243.56 L 464.01 240.29 L 470.73 238.84 L 477.69 237.69 L 479.58 237.64 L 481.43 238.00 L 483.17 238.74 L 484.74 239.87 L 486.01 241.32 L 486.92 242.95 L 487.45 244.74 L 487.59 246.66 L 487.37 249.70 L 486.36 256.93 L 485.44 261.61 L 484.07 267.29 L 482.72 271.82 L 490.61 263.43 L 495.67 258.88 L 501.18 254.38 L 502.80 253.37 L 504.56 252.76 L 506.41 252.56 L 508.31 252.78 L 510.12 253.41 L 511.72 254.38 L 513.08 255.65 L 514.18 257.23 L 515.48 259.97 L 518.23 266.73 L 519.80 271.24 L 521.48 276.85 L 522.57 281.38 L 525.17 270.22 L 527.28 263.72 L 529.79 257.06 L 530.71 255.40 L 531.94 253.99 L 533.43 252.88 L 535.16 252.11 L 537.02 251.75 L 538.90 251.79 L 540.74 252.22 L 542.46 253.04 L 544.97 254.76 L 550.74 259.22 L 554.33 262.34 L 558.57 266.37 L 561.84 269.80 L 558.57 258.82 L 557.11 252.11 L 555.96 245.15 L 555.92 243.26 L 556.27 241.41 L 557.01 239.68 L 558.15 238.11 L 559.59 236.83 L 561.23 235.93 L 563.02 235.40 L 564.94 235.26 L 567.98 235.48 L 575.21 236.49 L 579.89 237.40 L 585.58 238.78 L 590.11 240.12 L 581.72 232.24 L 577.16 227.19 L 572.66 221.68 L 571.65 220.06 L 571.05 218.30 L 570.84 216.45 L 571.07 214.55 L 571.69 212.74 L 572.66 211.14 L 573.94 209.78 L 575.51 208.68 L 578.25 207.39 L 585.02 204.64 L 589.53 203.07 L 595.14 201.39 L 599.67 200.30 L 588.52 197.70 L 582.01 195.60 L 575.34 193.09 L 573.68 192.16 L 572.27 190.94 L 571.16 189.45 L 570.39 187.72 L 570.03 185.86 L 570.07 183.98 L 570.50 182.15 L 571.32 180.43 L 573.04 177.91 L 577.51 172.15 L 580.63 168.56 L 584.66 164.33 L 588.10 161.06 L 577.11 164.33 L 570.39 165.78 L 563.43 166.93 L 561.54 166.97 L 559.69 166.62 L 557.95 165.88 L 556.38 164.75 L 555.11 163.30 L 554.20 161.67 L 553.67 159.87 L 553.53 157.96 L 553.76 154.92 L 554.76 147.69 L 555.68 143.01 L 557.06 137.33 L 558.40 132.80 L 550.51 141.19 L 545.45 145.74 L 539.94 150.24 L 538.32 151.25 L 536.56 151.86 L 534.71 152.06 L 532.81 151.83 L 531.00 151.21 L 529.40 150.24 L 528.04 148.96 L 526.94 147.39 L 525.64 144.65 L 522.89 137.89 L 521.32 133.38 L 519.64 127.77 L 518.55 123.24 L 515.95 134.39 L 513.84 140.90 L 511.33 147.56 L 510.41 149.22 L 509.18 150.63 L 507.69 151.74 L 505.96 152.51 L 504.10 152.87 L 502.22 152.83 L 500.39 152.40 L 498.66 151.58 L 496.15 149.86 L 490.39 145.40 L 486.79 142.28 L 482.56 138.25 L 479.28 134.81 L 479.28 134.81 Z M 468.63 24.56 L 471.19 24.21 L 473.16 24.47 L 474.89 25.10 L 475.93 25.65 L 479.54 27.89 L 482.91 30.29 L 487.64 34.08 L 492.51 38.54 L 498.03 44.38 L 501.53 48.62 L 505.01 53.46 L 508.48 58.93 L 511.62 64.82 L 514.30 70.85 L 516.53 77.04 L 517.37 80.48 L 518.71 74.11 L 520.53 68.39 L 522.90 62.56 L 525.86 56.60 L 529.30 50.91 L 533.47 45.19 L 538.44 39.41 L 542.42 35.40 L 546.94 31.41 L 552.03 27.43 L 557.73 23.47 L 559.31 22.63 L 561.00 22.16 L 562.75 22.04 L 564.52 22.29 L 566.17 22.86 L 567.44 23.60 L 568.51 24.50 L 569.30 25.37 L 570.31 26.90 L 572.32 30.64 L 574.05 34.40 L 576.26 40.06 L 578.26 46.35 L 580.12 54.18 L 581.03 59.61 L 581.63 65.54 L 581.89 72.01 L 581.66 78.73 L 580.96 85.29 L 579.79 91.72 L 578.78 95.07 L 583.15 90.21 L 587.57 86.17 L 592.53 82.31 L 598.07 78.63 L 603.88 75.42 L 610.36 72.55 L 617.56 70.04 L 623.01 68.56 L 628.92 67.36 L 635.30 66.47 L 642.21 65.89 L 644.01 65.97 L 645.69 66.42 L 647.25 67.21 L 648.67 68.32 L 650.23 70.35 L 650.99 72.20 L 651.32 74.03 L 651.36 75.20 L 651.19 79.45 L 650.80 83.58 L 649.88 89.58 L 648.46 96.03 L 646.15 103.73 L 644.23 108.89 L 641.78 114.32 L 638.77 120.06 L 635.24 125.71 L 631.33 131.04 L 627.03 136.07 L 624.51 138.50 L 630.72 136.49 L 636.58 135.21 L 642.82 134.35 L 649.47 133.93 L 656.12 134.06 L 663.17 134.81 L 670.66 136.22 L 676.13 137.67 L 681.83 139.59 L 687.80 142.00 L 694.06 144.96 L 695.53 145.93 L 696.77 147.16 L 697.75 148.61 L 698.42 150.24 L 698.77 152.80 L 698.50 154.77 L 697.88 156.50 L 697.33 157.54 L 695.09 161.15 L 692.69 164.52 L 688.89 169.24 L 684.43 174.11 L 678.58 179.62 L 674.34 183.12 L 669.50 186.60 L 664.02 190.07 L 658.14 193.21 L 652.10 195.89 L 645.90 198.12 L 642.46 198.96 L 648.84 200.30 L 654.57 202.11 L 660.40 204.48 L 666.36 207.44 L 672.05 210.87 L 677.78 215.04 L 683.56 220.01 L 687.57 223.99 L 691.56 228.50 L 695.54 233.59 L 699.51 239.28 L 700.33 240.87 L 700.79 242.55 L 700.90 244.30 L 700.69 246.08 L 700.12 247.72 L 699.38 248.99 L 698.48 250.07 L 697.60 250.85 L 696.07 251.86 L 692.33 253.87 L 688.57 255.60 L 682.91 257.80 L 676.61 259.80 L 668.78 261.66 L 663.35 262.57 L 657.42 263.17 L 650.94 263.43 L 644.22 263.21 L 637.65 262.51 L 631.22 261.34 L 627.86 260.33 L 632.73 264.69 L 636.77 269.11 L 640.64 274.06 L 644.31 279.60 L 647.53 285.41 L 650.40 291.89 L 652.91 299.08 L 654.39 304.53 L 655.59 310.43 L 656.49 316.81 L 657.06 323.72 L 656.83 326.11 L 656.03 328.23 L 654.63 330.17 L 652.60 331.74 L 650.75 332.49 L 648.92 332.82 L 647.75 332.86 L 643.50 332.70 L 639.36 332.30 L 633.36 331.38 L 626.90 329.96 L 619.20 327.66 L 614.04 325.73 L 608.60 323.29 L 602.86 320.28 L 597.20 316.75 L 591.87 312.84 L 586.84 308.54 L 584.41 306.03 L 586.42 312.23 L 587.70 318.09 L 588.56 324.33 L 588.98 330.97 L 588.85 337.62 L 588.10 344.67 L 586.69 352.15 L 585.24 357.61 L 583.32 363.32 L 580.90 369.28 L 577.95 375.53 L 576.98 377.01 L 575.74 378.25 L 574.29 379.22 L 572.66 379.89 L 570.10 380.24 L 568.13 379.98 L 566.40 379.35 L 565.36 378.80 L 561.75 376.56 L 558.38 374.16 L 553.65 370.37 L 548.78 365.91 L 543.26 360.07 L 539.76 355.83 L 536.28 350.99 L 532.81 345.52 L 529.66 339.59 L 526.98 333.56 L 524.76 327.41 L 523.92 323.97 L 522.57 330.34 L 520.76 336.06 L 518.38 341.89 L 515.42 347.85 L 511.99 353.54 L 507.82 359.26 L 502.85 365.04 L 498.87 369.05 L 494.35 373.04 L 489.26 377.02 L 483.56 380.98 L 481.97 381.81 L 480.29 382.26 L 478.54 382.37 L 476.77 382.16 L 475.12 381.59 L 473.85 380.85 L 472.77 379.95 L 471.99 379.08 L 470.98 377.55 L 468.97 373.81 L 467.24 370.05 L 465.03 364.39 L 463.03 358.10 L 461.17 350.27 L 460.26 344.85 L 459.66 338.91 L 459.40 332.44 L 459.63 325.73 L 460.33 319.16 L 461.50 312.73 L 462.50 309.38 L 458.14 314.24 L 453.72 318.28 L 448.76 322.14 L 443.22 325.82 L 437.40 329.03 L 430.93 331.90 L 423.73 334.42 L 418.28 335.89 L 412.37 337.09 L 405.99 337.98 L 399.08 338.56 L 396.69 338.33 L 394.56 337.53 L 392.62 336.13 L 391.05 334.10 L 390.30 332.25 L 389.97 330.42 L 389.93 329.25 L 390.09 325.00 L 390.49 320.87 L 391.41 314.87 L 392.83 308.42 L 395.14 300.72 L 397.06 295.56 L 399.51 290.13 L 402.52 284.39 L 406.05 278.74 L 409.96 273.41 L 414.26 268.38 L 416.78 265.95 L 410.57 267.96 L 404.71 269.24 L 398.47 270.10 L 391.82 270.52 L 385.17 270.39 L 378.12 269.64 L 370.63 268.23 L 365.16 266.78 L 359.46 264.86 L 353.49 262.45 L 347.23 259.49 L 345.76 258.52 L 344.51 257.29 L 343.54 255.84 L 342.87 254.21 L 342.52 251.65 L 342.78 249.68 L 343.41 247.95 L 343.96 246.91 L 346.20 243.31 L 348.60 239.93 L 352.40 235.21 L 356.86 230.34 L 362.71 224.83 L 366.95 221.33 L 371.79 217.85 L 377.27 214.38 L 383.15 211.25 L 389.19 208.57 L 395.39 206.33 L 398.83 205.50 L 392.45 204.15 L 386.72 202.34 L 380.89 199.97 L 374.93 197.01 L 369.24 193.58 L 363.51 189.41 L 357.73 184.44 L 353.72 180.46 L 349.73 175.95 L 345.74 170.86 L 341.78 165.17 L 340.94 163.58 L 340.47 161.90 L 340.35 160.15 L 340.60 158.37 L 341.17 156.73 L 341.91 155.46 L 342.81 154.38 L 343.69 153.60 L 345.22 152.59 L 347.92 151.10 L 350.61 149.80 L 354.68 148.07 L 359.22 146.39 L 364.93 144.62 L 370.39 143.29 L 376.67 142.13 L 383.20 141.35 L 390.35 141.02 L 397.07 141.24 L 403.63 141.97 L 410.07 143.20 L 413.84 144.54 L 408.64 139.84 L 404.60 135.43 L 400.74 130.47 L 397.06 124.93 L 393.85 119.12 L 390.97 112.65 L 388.46 105.46 L 386.98 100.00 L 385.78 94.10 L 384.89 87.72 L 384.31 80.82 L 384.39 79.02 L 384.84 77.34 L 385.63 75.78 L 386.75 74.36 L 387.74 73.46 L 388.71 72.81 L 390.60 72.01 L 392.32 71.71 L 393.54 71.59 L 397.79 71.76 L 401.92 72.15 L 407.93 73.07 L 414.38 74.49 L 422.09 76.79 L 427.25 78.72 L 432.69 81.16 L 438.43 84.17 L 444.08 87.70 L 449.42 91.61 L 454.45 95.91 L 456.88 98.42 L 454.87 92.22 L 453.59 86.36 L 452.73 80.13 L 452.31 73.48 L 452.44 66.83 L 453.19 59.78 L 454.60 52.30 L 456.05 46.84 L 457.97 41.13 L 460.38 35.17 L 463.34 28.92 L 464.31 27.44 L 465.55 26.20 L 467.00 25.23 L 468.63 24.56 L 468.63 24.56 Z" fill="#f5ac2a" fill-rule="nonzero" group-id="1,3" id="形状" node-id="19" stroke="none" target-height="360.3347" target-width="360.5547" target-x="340.3493" target-y="22.040262"></path><path d="M 492.33 124.85 L 492.41 136.35 L 491.89 143.17 L 490.99 150.19 L 490.48 152.03 L 489.62 153.70 L 488.42 155.14 L 486.87 156.32 L 485.15 157.12 L 483.31 157.52 L 481.43 157.50 L 479.57 157.08 L 476.74 155.99 L 470.07 152.96 L 465.83 150.76 L 460.76 147.84 L 456.81 145.24 L 462.60 155.14 L 465.57 161.32 L 468.31 167.90 L 468.80 169.77 L 468.88 171.65 L 468.55 173.48 L 467.81 175.20 L 466.70 176.77 L 465.30 178.05 L 463.67 178.99 L 461.85 179.57 L 458.83 180.03 L 451.57 180.75 L 446.80 180.98 L 440.94 180.99 L 436.24 180.74 L 446.23 186.45 L 451.85 190.30 L 457.57 194.59 L 458.92 195.93 L 459.93 197.53 L 460.57 199.30 L 460.84 201.22 L 460.69 203.14 L 460.12 204.92 L 459.16 206.53 L 457.82 207.93 L 455.46 209.82 L 449.51 214.07 L 445.49 216.65 L 440.43 219.60 L 436.24 221.70 L 447.74 221.61 L 454.56 222.13 L 461.60 223.04 L 463.43 223.54 L 465.10 224.40 L 466.55 225.60 L 467.73 227.15 L 468.53 228.87 L 468.92 230.71 L 468.91 232.59 L 468.48 234.45 L 467.39 237.27 L 464.36 243.94 L 462.16 248.18 L 459.24 253.25 L 456.64 257.20 L 466.55 251.41 L 472.73 248.44 L 479.31 245.70 L 481.19 245.21 L 483.06 245.13 L 484.90 245.46 L 486.62 246.20 L 488.19 247.31 L 489.47 248.71 L 490.41 250.34 L 490.99 252.16 L 491.45 255.17 L 492.18 262.44 L 492.40 267.20 L 492.41 273.06 L 492.16 277.76 L 497.87 267.77 L 501.72 262.15 L 506.02 256.44 L 507.37 255.09 L 508.96 254.08 L 510.74 253.43 L 512.65 253.17 L 514.57 253.32 L 516.36 253.89 L 517.97 254.85 L 519.37 256.19 L 521.26 258.55 L 525.52 264.49 L 528.10 268.51 L 531.04 273.56 L 533.14 277.76 L 533.06 266.26 L 533.58 259.44 L 534.49 252.41 L 534.99 250.58 L 535.85 248.91 L 537.05 247.46 L 538.60 246.29 L 540.33 245.48 L 542.16 245.09 L 544.04 245.10 L 545.91 245.53 L 548.73 246.62 L 555.40 249.65 L 559.64 251.85 L 564.72 254.76 L 568.66 257.36 L 562.87 247.46 L 559.91 241.28 L 557.16 234.70 L 556.67 232.83 L 556.59 230.96 L 556.92 229.12 L 557.66 227.40 L 558.78 225.83 L 560.17 224.56 L 561.80 223.62 L 563.63 223.04 L 566.64 222.58 L 573.91 221.85 L 578.67 221.63 L 584.53 221.61 L 589.24 221.86 L 579.24 216.16 L 573.62 212.31 L 567.91 208.02 L 566.56 206.67 L 565.55 205.08 L 564.90 203.30 L 564.63 201.39 L 564.79 199.47 L 565.36 197.68 L 566.32 196.07 L 567.66 194.67 L 570.02 192.79 L 575.96 188.53 L 579.98 185.95 L 585.04 183.01 L 589.24 180.91 L 577.73 180.99 L 570.91 180.47 L 563.88 179.57 L 562.04 179.06 L 560.37 178.20 L 558.92 177.00 L 557.75 175.45 L 556.94 173.73 L 556.55 171.90 L 556.57 170.02 L 556.99 168.15 L 558.08 165.33 L 561.11 158.67 L 563.31 154.42 L 566.23 149.35 L 568.83 145.41 L 558.92 151.20 L 552.74 154.16 L 546.16 156.91 L 544.29 157.40 L 542.41 157.47 L 540.57 157.14 L 538.85 156.40 L 537.28 155.29 L 536.01 153.90 L 535.06 152.26 L 534.49 150.45 L 534.02 147.43 L 533.30 140.17 L 533.08 135.41 L 533.06 129.55 L 533.31 124.85 L 527.60 134.84 L 523.75 140.45 L 519.45 146.17 L 518.11 147.52 L 516.52 148.53 L 514.74 149.17 L 512.82 149.44 L 510.90 149.28 L 509.12 148.71 L 507.50 147.76 L 506.10 146.42 L 504.21 144.06 L 499.96 138.12 L 497.38 134.10 L 494.43 129.04 L 492.33 124.85 L 492.33 124.85 Z M 513.58 16.00 L 515.34 16.18 L 516.75 16.60 L 518.01 17.23 L 518.96 17.89 L 520.29 19.11 L 523.13 22.30 L 525.69 25.56 L 529.15 30.55 L 532.56 36.21 L 536.19 43.38 L 538.34 48.45 L 540.29 54.07 L 542.04 60.31 L 543.39 66.88 L 544.23 73.45 L 544.56 80.03 L 544.40 83.56 L 547.50 77.85 L 550.87 72.87 L 554.79 67.95 L 559.33 63.07 L 564.24 58.58 L 569.87 54.27 L 576.29 50.14 L 581.25 47.42 L 586.72 44.88 L 592.73 42.51 L 599.31 40.34 L 601.05 40.01 L 602.82 40.03 L 604.55 40.42 L 606.20 41.18 L 607.64 42.21 L 608.65 43.28 L 609.43 44.45 L 609.93 45.50 L 610.48 47.22 L 611.34 51.39 L 611.93 55.49 L 612.44 61.54 L 612.56 68.14 L 612.11 76.17 L 611.44 81.63 L 610.32 87.50 L 608.72 93.80 L 606.58 100.18 L 604.03 106.27 L 601.08 112.09 L 599.15 115.11 L 604.69 111.76 L 610.07 109.14 L 615.93 106.85 L 622.31 104.89 L 628.82 103.46 L 635.86 102.54 L 643.50 102.17 L 649.16 102.30 L 655.17 102.83 L 661.56 103.79 L 668.34 105.21 L 670.04 105.82 L 671.55 106.73 L 672.85 107.91 L 673.88 109.32 L 674.61 110.94 L 674.95 112.38 L 675.04 113.78 L 674.94 114.94 L 674.56 116.71 L 673.20 120.75 L 671.65 124.59 L 669.06 130.07 L 665.86 135.85 L 661.45 142.58 L 658.13 146.97 L 654.23 151.50 L 649.70 156.15 L 644.67 160.59 L 639.41 164.59 L 633.91 168.15 L 630.80 169.75 L 637.27 169.58 L 643.25 170.01 L 649.47 170.96 L 655.97 172.45 L 662.31 174.46 L 668.86 177.18 L 675.65 180.67 L 680.48 183.61 L 685.42 187.07 L 690.47 191.08 L 695.63 195.68 L 696.80 197.05 L 697.64 198.59 L 698.15 200.26 L 698.32 202.06 L 698.15 203.82 L 697.72 205.23 L 697.09 206.49 L 696.43 207.44 L 695.21 208.77 L 692.02 211.60 L 688.75 214.16 L 683.76 217.63 L 678.10 221.03 L 670.92 224.66 L 665.85 226.80 L 660.22 228.76 L 653.98 230.51 L 647.41 231.85 L 640.84 232.69 L 634.25 233.03 L 630.72 232.86 L 636.43 235.96 L 641.41 239.32 L 646.34 243.25 L 651.22 247.78 L 655.71 252.69 L 660.03 258.32 L 664.16 264.73 L 666.88 269.69 L 669.42 275.16 L 671.79 281.16 L 673.97 287.74 L 674.30 289.48 L 674.27 291.25 L 673.89 292.98 L 673.13 294.63 L 672.09 296.06 L 671.02 297.08 L 669.85 297.86 L 668.80 298.36 L 667.08 298.91 L 662.91 299.76 L 658.80 300.35 L 652.75 300.86 L 646.15 300.98 L 638.11 300.53 L 632.65 299.86 L 626.78 298.74 L 620.48 297.14 L 614.09 295.00 L 607.99 292.46 L 602.17 289.51 L 599.15 287.58 L 602.51 293.12 L 605.12 298.50 L 607.41 304.35 L 609.37 310.73 L 610.80 317.23 L 611.72 324.27 L 612.10 331.90 L 611.96 337.56 L 611.43 343.57 L 610.47 349.95 L 609.06 356.73 L 608.45 358.43 L 607.53 359.94 L 606.35 361.24 L 604.94 362.27 L 603.33 363.00 L 601.89 363.34 L 600.48 363.42 L 599.32 363.32 L 597.55 362.94 L 593.51 361.58 L 589.67 360.03 L 584.18 357.44 L 578.40 354.25 L 571.67 349.84 L 567.27 346.53 L 562.74 342.63 L 558.08 338.10 L 553.64 333.07 L 549.64 327.81 L 546.07 322.32 L 544.48 319.22 L 544.65 325.68 L 544.22 331.65 L 543.27 337.87 L 541.78 344.36 L 539.76 350.70 L 537.04 357.25 L 533.55 364.03 L 530.61 368.86 L 527.15 373.80 L 523.14 378.84 L 518.53 384.00 L 517.16 385.17 L 515.62 386.01 L 513.95 386.52 L 512.15 386.69 L 510.38 386.51 L 508.97 386.09 L 507.72 385.46 L 506.76 384.80 L 505.43 383.58 L 502.60 380.39 L 500.04 377.13 L 496.57 372.14 L 493.16 366.48 L 489.54 359.31 L 487.39 354.24 L 485.43 348.62 L 483.68 342.38 L 482.33 335.81 L 481.50 329.24 L 481.16 322.66 L 481.33 319.13 L 478.22 324.84 L 474.86 329.82 L 470.93 334.74 L 466.40 339.62 L 461.48 344.11 L 455.85 348.42 L 449.44 352.55 L 444.47 355.27 L 439.01 357.81 L 433.00 360.18 L 426.41 362.35 L 424.67 362.68 L 422.90 362.66 L 421.17 362.27 L 419.52 361.51 L 418.09 360.48 L 417.07 359.41 L 416.29 358.24 L 415.79 357.19 L 415.24 355.47 L 414.38 351.30 L 413.80 347.20 L 413.29 341.15 L 413.17 334.55 L 413.61 326.52 L 414.29 321.06 L 415.40 315.19 L 417.01 308.89 L 419.15 302.51 L 421.69 296.42 L 424.65 290.60 L 426.58 287.58 L 421.04 290.93 L 415.65 293.55 L 409.79 295.84 L 403.41 297.80 L 396.91 299.23 L 389.86 300.15 L 382.23 300.52 L 376.56 300.39 L 370.55 299.86 L 364.17 298.90 L 357.38 297.48 L 355.69 296.87 L 354.17 295.96 L 352.87 294.77 L 351.84 293.37 L 351.11 291.75 L 350.77 290.31 L 350.69 288.91 L 350.78 287.75 L 351.17 285.98 L 352.53 281.94 L 354.08 278.10 L 356.67 272.62 L 359.87 266.84 L 364.28 260.11 L 367.59 255.72 L 371.49 251.19 L 376.03 246.54 L 381.06 242.10 L 386.32 238.10 L 391.81 234.54 L 394.92 232.94 L 388.45 233.11 L 382.48 232.68 L 376.25 231.73 L 369.76 230.24 L 363.41 228.23 L 356.86 225.51 L 350.07 222.02 L 345.24 219.08 L 340.31 215.62 L 335.26 211.61 L 330.09 207.01 L 328.92 205.64 L 328.09 204.10 L 327.58 202.43 L 327.40 200.63 L 327.58 198.87 L 328.00 197.45 L 328.63 196.20 L 329.30 195.25 L 330.51 193.92 L 333.71 191.09 L 336.97 188.53 L 341.96 185.06 L 347.62 181.66 L 354.80 178.03 L 359.87 175.89 L 365.50 173.93 L 371.74 172.18 L 378.31 170.84 L 384.89 170.00 L 391.48 169.66 L 395.00 169.83 L 389.29 166.73 L 384.31 163.37 L 379.39 159.44 L 374.50 154.91 L 370.01 150.00 L 365.70 144.37 L 361.56 137.96 L 358.85 133.00 L 356.30 127.53 L 353.93 121.53 L 351.76 114.95 L 351.43 113.21 L 351.45 111.44 L 351.84 109.71 L 352.60 108.06 L 353.63 106.63 L 354.71 105.61 L 355.88 104.83 L 356.93 104.33 L 358.64 103.78 L 361.67 103.13 L 364.61 102.65 L 369.00 102.14 L 373.83 101.83 L 379.80 101.77 L 385.47 102.01 L 391.80 102.68 L 398.28 103.81 L 405.25 105.55 L 411.64 107.69 L 417.73 110.23 L 423.56 113.18 L 426.83 115.53 L 423.14 109.57 L 420.52 104.19 L 418.23 98.34 L 416.27 91.96 L 414.84 85.46 L 413.92 78.42 L 413.54 70.79 L 413.68 65.13 L 414.21 59.12 L 415.17 52.74 L 416.59 45.96 L 417.20 44.26 L 418.11 42.75 L 419.29 41.45 L 420.70 40.42 L 421.91 39.84 L 423.01 39.49 L 425.07 39.25 L 426.79 39.44 L 428.01 39.75 L 432.05 41.11 L 435.89 42.66 L 441.38 45.25 L 447.16 48.44 L 453.89 52.85 L 458.29 56.16 L 462.82 60.06 L 467.47 64.59 L 471.92 69.62 L 475.91 74.88 L 479.48 80.37 L 481.08 83.47 L 480.91 77.01 L 481.34 71.04 L 482.29 64.82 L 483.78 58.33 L 485.79 51.99 L 488.52 45.44 L 492.01 38.66 L 494.95 33.83 L 498.41 28.89 L 502.42 23.85 L 507.03 18.69 L 508.49 17.55 L 510.08 16.71 L 511.78 16.18 L 513.58 16.00 L 513.58 16.00 Z" fill="#ffe931" fill-rule="nonzero" group-id="1,3" id="形状" node-id="20" stroke="none" target-height="370.68967" target-width="370.91605" target-x="327.40457" target-y="16"></path><path d="M 421.43 203.50 L 421.76 195.59 L 422.69 187.95 L 424.20 180.56 L 426.29 173.39 L 428.94 166.37 L 432.08 159.69 L 435.70 153.31 L 439.81 147.24 L 444.39 141.48 L 449.34 136.14 L 454.69 131.19 L 460.45 126.62 L 466.53 122.51 L 472.90 118.89 L 479.59 115.75 L 486.61 113.10 L 493.79 111.01 L 501.18 109.50 L 508.83 108.58 L 516.74 108.24 L 524.66 108.58 L 532.30 109.50 L 539.70 111.01 L 546.88 113.10 L 553.90 115.75 L 560.59 118.89 L 566.96 122.51 L 573.04 126.62 L 578.80 131.19 L 584.15 136.14 L 589.10 141.48 L 593.67 147.24 L 597.79 153.31 L 601.41 159.69 L 604.55 166.37 L 607.20 173.39 L 609.29 180.56 L 610.80 187.95 L 611.73 195.59 L 612.06 203.50 L 611.73 211.41 L 610.80 219.05 L 609.29 226.44 L 607.20 233.61 L 604.55 240.63 L 601.41 247.31 L 597.79 253.69 L 593.67 259.76 L 589.10 265.52 L 584.15 270.86 L 578.80 275.81 L 573.04 280.38 L 566.96 284.49 L 560.59 288.11 L 553.90 291.25 L 546.88 293.90 L 539.70 295.99 L 532.30 297.50 L 524.66 298.42 L 516.74 298.76 L 508.83 298.42 L 501.18 297.50 L 493.79 295.99 L 486.61 293.90 L 479.59 291.25 L 472.90 288.11 L 466.53 284.49 L 460.45 280.38 L 454.69 275.81 L 449.34 270.86 L 444.39 265.52 L 439.81 259.76 L 435.70 253.69 L 432.08 247.31 L 428.94 240.63 L 426.29 233.61 L 424.20 226.44 L 422.69 219.05 L 421.76 211.41 L 421.43 203.50 Z" fill="#f5ac2a" fill-rule="nonzero" group-id="1,3" id="路径" node-id="21" stroke="none" target-height="190.51723" target-width="190.63354" target-x="421.4275" target-y="108.24138"></path><path d="M 447.31 203.07 L 447.55 197.34 L 448.22 191.81 L 449.32 186.46 L 450.84 181.27 L 452.78 176.19 L 455.06 171.35 L 457.70 166.74 L 460.69 162.33 L 464.02 158.17 L 467.63 154.30 L 471.53 150.72 L 475.72 147.41 L 480.15 144.43 L 484.79 141.81 L 489.67 139.54 L 494.78 137.62 L 500.01 136.11 L 505.40 135.02 L 510.97 134.35 L 516.74 134.10 L 522.52 134.35 L 528.09 135.02 L 533.48 136.11 L 538.70 137.62 L 543.82 139.54 L 548.69 141.81 L 553.34 144.43 L 557.77 147.41 L 561.96 150.72 L 565.86 154.30 L 569.47 158.17 L 572.79 162.33 L 575.79 166.74 L 578.43 171.35 L 580.71 176.19 L 582.65 181.27 L 584.17 186.46 L 585.26 191.81 L 585.94 197.34 L 586.18 203.07 L 585.94 208.80 L 585.26 214.33 L 584.17 219.68 L 582.65 224.87 L 580.71 229.95 L 578.43 234.79 L 575.79 239.40 L 572.79 243.80 L 569.47 247.97 L 565.86 251.84 L 561.96 255.42 L 557.77 258.73 L 553.34 261.71 L 548.69 264.33 L 543.82 266.60 L 538.70 268.52 L 533.48 270.03 L 528.09 271.12 L 522.52 271.79 L 516.74 272.03 L 510.97 271.79 L 505.40 271.12 L 500.01 270.03 L 494.78 268.52 L 489.67 266.60 L 484.79 264.33 L 480.15 261.71 L 475.72 258.73 L 471.53 255.42 L 467.63 251.84 L 464.02 247.97 L 460.69 243.80 L 457.70 239.40 L 455.06 234.79 L 452.78 229.95 L 450.84 224.87 L 449.32 219.68 L 448.22 214.33 L 447.55 208.80 L 447.31 203.07 Z" fill="#d8691f" fill-rule="nonzero" group-id="1,3" id="路径" node-id="22" stroke="none" target-height="137.93103" target-width="138.87787" target-x="447.30536" target-y="134.10345"></path></g></g></svg>